# xmcd CD database file
#
# Track frame offsets:
#	150
#	25381
#	72817
#	113563
#	147688
#	180242
#	228036
#	271807
#
# Disc length: 4112 seconds
#
# Revision: 1
# Processed by: cddbd v1.5.1PL0 Copyright (c) Steve Scherf et al.
# Submitted via: CDex 1.51
#
DISCID=63100e08
DTITLE=HOWARD GREEN - romantiCELLO
DYEAR=1999
DGENRE=New Age
TTITLE0=RAINBOW
TTITLE1=ANGELS
TTITLE2=LOVERS 
TTITLE3=AIRE 
TTITLE4=JOURNEY
TTITLE5=DAYLIGHT/ TWILIGHT 
TTITLE6=TOGETHER 
TTITLE7=WINTER GARDEN 
EXTD=YEAR: 1999
EXTT0=
EXTT1=
EXTT2=
EXTT3=
EXTT4=
EXTT5=
EXTT6=
EXTT7=
PLAYORDER=
